<svg width="201" height="91" viewBox="0 0 201 91" fill="none" xmlns="http://www.w3.org/2000/svg">
<g clip-path="url(#clip0_8643_3618)">
<path d="M67.6738 0.100218L0.515058 0.110226L0.5 74.6685V82.424C0.5 82.424 13.6155 90.9951 32.5284 90.9951C51.4413 90.9951 67.6738 83.2546 67.6738 83.2546L67.6588 74.6635L67.6738 0.0952148V0.100218ZM3.41624 80.4126V47.5191H39.8767L8.34021 83.0044L3.41624 80.4126ZM64.6923 74.6685H41.9296L64.6923 48.8V74.6685ZM64.6923 43.6813L33.5323 78.3411H64.6923V81.1731C64.6923 81.1731 46.7181 88.2282 32.6338 88.2282C18.5495 88.2282 11.9341 84.2003 11.9341 84.2003L17.2395 78.3411H17.2295L48.254 44.0266H3.46643V25.1781C3.43129 24.3225 3.42126 23.4019 3.42126 22.3961V3.18242H14.8704V34.0395H64.6973V43.6813H64.6923ZM64.6923 30.2918H19.1669V3.18242H64.6923V30.2918Z" fill="white"/>
<path d="M79.4045 0.189941H78.0342V82.1185H79.4045V0.189941Z" fill="white"/>
<path d="M89.3975 0.54541H93.1268L96.1635 5.45892L99.2002 0.54541H102.93V13.2395H99.4211V5.94927L96.1635 10.9178H96.0933L92.8508 5.98429V13.2395H89.3975V0.54541Z" fill="white"/>
<path d="M104.365 9.84683V3.42725H107.824V8.74104C107.824 9.81181 108.386 10.3922 109.224 10.3922C110.062 10.3922 110.659 9.81181 110.659 8.74104V3.42725H114.118V13.2393H110.659V11.8983C110.022 12.7139 109.114 13.4594 107.713 13.4594C105.62 13.4594 104.365 12.0834 104.365 9.85184" fill="white"/>
<path d="M115.423 3.42768H118.881V4.80366C119.519 3.98808 120.427 3.20752 121.828 3.20752C123.921 3.20752 125.176 4.5835 125.176 6.8151V13.2347H121.717V7.92089C121.717 6.85012 121.155 6.26971 120.332 6.26971C119.509 6.26971 118.876 6.85012 118.876 7.92089V13.2347H115.418V3.42768H115.423Z" fill="white"/>
<path d="M126.41 0H130.014V2.53681H126.41V0ZM126.485 3.42745H129.944V13.2395H126.485V3.42745Z" fill="white"/>
<path d="M130.922 8.37622V8.34119C130.922 5.56421 133.085 3.22754 136.197 3.22754C138.215 3.22754 139.56 4.09816 140.399 5.42411L138.049 7.16535C137.578 6.51489 137.051 6.12961 136.212 6.12961C135.103 6.12961 134.285 7.11031 134.285 8.30617V8.34119C134.285 9.6121 135.088 10.5728 136.253 10.5728C137.071 10.5728 137.598 10.1925 138.145 9.55706L140.454 11.2233C139.545 12.5642 138.235 13.4699 136.067 13.4699C133.1 13.4699 130.917 11.1482 130.917 8.37622" fill="white"/>
<path d="M141.122 0H144.726V2.53681H141.122V0ZM141.197 3.42745H144.656V13.2395H141.197V3.42745Z" fill="white"/>
<path d="M146.036 3.42756H149.494V4.73349C150.167 3.91791 151.005 3.2124 152.476 3.2124C154.82 3.2124 156.843 5.15379 156.843 8.29103V8.32605C156.843 11.5183 154.825 13.4597 152.496 13.4597C151.005 13.4597 150.132 12.7892 149.494 12.0437V16.1416H146.036V3.42756ZM153.44 8.34107V8.30604C153.44 7.02012 152.546 6.09446 151.422 6.09446C150.298 6.09446 149.419 7.02012 149.419 8.30604V8.34107C149.419 9.647 150.313 10.5727 151.422 10.5727C152.531 10.5727 153.44 9.66701 153.44 8.34107Z" fill="white"/>
<path d="M157.786 0H161.39V2.53681H157.786V0ZM157.856 3.42745H161.315V13.2395H157.856V3.42745Z" fill="white"/>
<path d="M162.293 8.37621V8.34119C162.293 5.54919 164.587 3.20752 167.749 3.20752C170.911 3.20752 173.17 5.50916 173.17 8.30116V8.33618C173.17 11.1282 170.876 13.4698 167.714 13.4698C164.552 13.4698 162.293 11.1682 162.293 8.37621ZM169.807 8.37621V8.34119C169.807 7.14533 168.934 6.12961 167.714 6.12961C166.494 6.12961 165.656 7.12532 165.656 8.30616V8.34119C165.656 9.53704 166.529 10.5528 167.749 10.5528C168.969 10.5528 169.807 9.55705 169.807 8.37621Z" fill="white"/>
<path d="M89.7637 16.3516H94.4517V29.1107H102.633V33.2036H89.7637V16.3516Z" fill="white"/>
<path d="M102.874 26.7491V26.699C102.874 22.9914 105.916 19.8892 110.117 19.8892C114.318 19.8892 117.315 22.9463 117.315 26.654V26.704C117.315 30.4117 114.273 33.5139 110.072 33.5139C105.871 33.5139 102.874 30.4567 102.874 26.7491ZM112.847 26.7491V26.699C112.847 25.1079 111.688 23.7619 110.072 23.7619C108.456 23.7619 107.341 25.0879 107.341 26.649V26.699C107.341 28.2852 108.501 29.6361 110.117 29.6361C111.733 29.6361 112.847 28.3152 112.847 26.7491Z" fill="white"/>
<path d="M118.52 20.1794H123.107V21.9606C123.95 20.8799 125.16 19.8892 126.992 19.8892C128.729 19.8892 130.059 20.6597 130.757 22.0057C131.891 20.7047 133.221 19.8892 135.129 19.8892C137.904 19.8892 139.596 21.6204 139.596 24.6576V33.2037H135.008V26.1286C135.008 24.7076 134.31 23.9621 133.221 23.9621C132.132 23.9621 131.339 24.7076 131.339 26.1286V33.2037H126.751V26.1286C126.751 24.7076 126.054 23.9621 124.964 23.9621C123.875 23.9621 123.107 24.7076 123.107 26.1286V33.2037H118.52V20.1794Z" fill="white"/>
<path d="M140.584 29.4712V29.4211C140.584 26.7242 142.637 25.3282 145.704 25.3282C146.914 25.3282 148.093 25.5684 148.841 25.8336V25.6184C148.841 24.2724 147.998 23.5019 146.231 23.5019C144.856 23.5019 143.792 23.7671 142.632 24.2224L141.689 20.9951C143.159 20.3947 144.73 19.9844 146.979 19.9844C149.228 19.9844 150.914 20.5398 151.953 21.5705C152.942 22.5362 153.353 23.8822 153.353 25.7135V33.1988H148.811V31.8529C147.918 32.8386 146.688 33.489 144.971 33.489C142.482 33.489 140.574 32.068 140.574 29.4712M148.891 28.4854V27.885C148.435 27.6899 147.782 27.5448 147.104 27.5448C145.774 27.5448 145.001 28.1952 145.001 29.1559V29.201C145.001 30.0916 145.679 30.622 146.617 30.622C147.948 30.622 148.886 29.7814 148.886 28.4804" fill="white"/>
<path d="M153.981 31.5678L155.698 28.8008C157.194 29.7865 158.835 30.2918 160.19 30.2918C160.988 30.2918 161.35 30.0517 161.35 29.5913V29.5413C161.35 29.0359 160.627 28.8208 159.252 28.4355C156.667 27.76 154.614 26.8944 154.614 24.2725V24.2275C154.614 21.4605 156.837 19.9194 159.854 19.9194C161.761 19.9194 163.744 20.4748 165.24 21.4355L163.669 24.3226C162.319 23.577 160.843 23.1167 159.804 23.1167C159.101 23.1167 158.74 23.3819 158.74 23.7422V23.7922C158.74 24.2976 159.488 24.5377 160.863 24.948C163.448 25.6685 165.501 26.5592 165.501 29.086V29.136C165.501 32.0031 163.353 33.4941 160.165 33.4941C157.967 33.4941 155.793 32.8687 153.981 31.5678Z" fill="white"/>
<path d="M172.137 26.7489V26.6989C172.137 22.4609 174.792 19.889 177.884 19.889C179.866 19.889 181.021 20.7797 181.894 21.7654V15.626H186.482V33.1985H181.894V31.4673C181.001 32.5481 179.867 33.4887 177.909 33.4887C174.817 33.4887 172.137 30.9119 172.137 26.7489ZM181.965 26.7039V26.6539C181.965 24.9426 180.78 23.7168 179.309 23.7168C177.839 23.7168 176.629 24.9226 176.629 26.6539V26.7039C176.629 28.4351 177.839 29.666 179.309 29.666C180.78 29.666 181.965 28.4401 181.965 26.7039Z" fill="white"/>
<path d="M187.686 26.7491V26.699C187.686 22.8963 190.416 19.8892 194.276 19.8892C198.794 19.8892 200.867 23.1865 200.867 27.0143C200.867 27.3045 200.867 27.6397 200.842 27.9549H192.098C192.459 29.3759 193.498 30.0965 194.924 30.0965C196.008 30.0965 196.881 29.6862 197.82 28.7755L200.355 30.867C199.1 32.4581 197.288 33.5139 194.678 33.5139C190.572 33.5139 187.676 30.7919 187.676 26.7491M196.57 25.6183C196.399 24.1722 195.556 23.2616 194.301 23.2616C193.046 23.2616 192.273 24.2022 192.033 25.6183H196.57Z" fill="white"/>
<path d="M89.2373 49.7705L97.71 40.2637H89.5234V36.3159H104.18V39.7083L95.7072 49.2151H104.18V53.163H89.2373V49.7705Z" fill="white"/>
<path d="M104.978 49.4354V49.3904C104.978 46.6934 107.03 45.2974 110.097 45.2974C111.302 45.2974 112.486 45.5376 113.234 45.8028V45.5876C113.234 44.2417 112.391 43.4711 110.624 43.4711C109.249 43.4711 108.185 43.7363 107.025 44.1916L106.082 40.9643C107.557 40.3639 109.124 39.9536 111.372 39.9536C113.621 39.9536 115.307 40.509 116.346 41.5397C117.335 42.5004 117.747 43.8514 117.747 45.6827V53.1681H113.209V51.8221C112.316 52.8078 111.086 53.4583 109.369 53.4583C106.885 53.4583 104.978 52.0372 104.978 49.4404M113.28 48.4497V47.8493C112.823 47.6541 112.17 47.514 111.493 47.514C110.163 47.514 109.395 48.1645 109.395 49.1252V49.1702C109.395 50.0608 110.072 50.5912 111.011 50.5912C112.341 50.5912 113.28 49.7506 113.28 48.4497Z" fill="white"/>
<path d="M119.363 40.1437H123.951V41.925C124.794 40.8442 126.004 39.8535 127.836 39.8535C129.573 39.8535 130.903 40.6241 131.6 41.97C132.735 40.6691 134.065 39.8535 135.972 39.8535C138.748 39.8535 140.439 41.5848 140.439 44.6169V53.163H135.852V46.088C135.852 44.667 135.149 43.9214 134.065 43.9214C132.981 43.9214 132.183 44.667 132.183 46.088V53.163H127.595V46.088C127.595 44.667 126.897 43.9214 125.808 43.9214C124.719 43.9214 123.951 44.667 123.951 46.088V53.163H119.363V40.1387V40.1437Z" fill="white"/>
<path d="M141.549 46.7134V46.6634C141.549 42.9557 144.591 39.8535 148.792 39.8535C152.993 39.8535 155.989 42.9107 155.989 46.6183V46.6684C155.989 50.376 152.948 53.4782 148.747 53.4782C144.545 53.4782 141.549 50.4211 141.549 46.7134ZM151.522 46.7134V46.6634C151.522 45.0722 150.363 43.7263 148.747 43.7263C147.13 43.7263 146.021 45.0522 146.021 46.6133V46.6634C146.021 48.2545 147.181 49.6005 148.797 49.6005C150.413 49.6005 151.527 48.2745 151.527 46.7134" fill="white"/>
<path d="M157.193 40.1436H161.781V42.7655C162.529 40.9842 163.739 39.8284 165.912 39.9234V44.7369H165.525C163.136 44.7369 161.781 46.1078 161.781 49.12V53.1629H157.193V40.1386V40.1436Z" fill="white"/>
<path d="M165.546 49.4354V49.3904C165.546 46.6934 167.599 45.2974 170.666 45.2974C171.876 45.2974 173.055 45.5376 173.803 45.8028V45.5876C173.803 44.2417 172.96 43.4711 171.193 43.4711C169.818 43.4711 168.754 43.7363 167.594 44.1916L166.65 40.9643C168.121 40.3639 169.692 39.9536 171.941 39.9536C174.189 39.9536 175.876 40.509 176.915 41.5397C177.904 42.5004 178.315 43.8514 178.315 45.6827V53.1681H173.773V51.8221C172.879 52.8078 171.65 53.4583 169.933 53.4583C167.443 53.4583 165.536 52.0372 165.536 49.4404M173.853 48.4497V47.8493C173.396 47.6541 172.744 47.514 172.066 47.514C170.736 47.514 169.963 48.1645 169.963 49.1252V49.1702C169.963 50.0608 170.641 50.5912 171.579 50.5912C172.91 50.5912 173.848 49.7506 173.848 48.4497" fill="white"/>
<path d="M89.3174 63.8604V63.8354C89.3174 61.0684 91.4958 58.9019 94.4471 58.9019C96.1186 58.9019 97.3031 59.4172 98.312 60.2828L96.7611 62.1392C96.0835 61.5688 95.4008 61.2435 94.4622 61.2435C93.0869 61.2435 92.0278 62.3943 92.0278 63.8454V63.8704C92.0278 65.4015 93.102 66.5023 94.6128 66.5023C95.2502 66.5023 95.7421 66.3672 96.1336 66.107V64.9562H94.2564V63.0298H98.6333V67.2979C97.6294 68.1234 96.224 68.7639 94.4973 68.7639C91.5309 68.7639 89.3174 66.7325 89.3174 63.8554" fill="white"/>
<path d="M99.0049 64.9414V64.9164C99.0049 62.8299 100.716 61.0786 103.086 61.0786C105.455 61.0786 107.141 62.7998 107.141 64.8863V64.9113C107.141 66.9978 105.425 68.7491 103.061 68.7491C100.696 68.7491 99.0099 67.0279 99.0099 64.9414M104.622 64.9414V64.9164C104.622 64.0207 103.969 63.2602 103.055 63.2602C102.142 63.2602 101.52 64.0057 101.52 64.8863V64.9113C101.52 65.807 102.172 66.5675 103.086 66.5675C103.999 66.5675 104.622 65.822 104.622 64.9414Z" fill="white"/>
<path d="M110.127 67.6836V68.5792H107.542V58.6821H110.127V62.2197C110.629 61.6092 111.256 61.0788 112.356 61.0788C114.112 61.0788 115.618 62.5299 115.618 64.8766V64.9016C115.618 67.2883 114.107 68.7393 112.366 68.7393C111.251 68.7393 110.599 68.239 110.122 67.6836M113.078 64.9166V64.8916C113.078 63.9309 112.411 63.2354 111.568 63.2354C110.724 63.2354 110.072 63.9259 110.072 64.8916V64.9166C110.072 65.8923 110.739 66.5828 111.568 66.5828C112.396 66.5828 113.078 65.9073 113.078 64.9166Z" fill="white"/>
<path d="M116.061 58.6821H118.751V60.5785H116.061V58.6821ZM116.116 61.244H118.701V68.5792H116.116V61.244Z" fill="white"/>
<path d="M119.188 64.9414V64.9164C119.188 62.7748 120.723 61.0786 122.902 61.0786C125.447 61.0786 126.616 62.9349 126.616 65.0915C126.616 65.2566 126.616 65.4417 126.601 65.6219H121.677C121.883 66.4224 122.465 66.8277 123.268 66.8277C123.881 66.8277 124.372 66.5976 124.9 66.0822L126.33 67.263C125.622 68.1587 124.603 68.7541 123.133 68.7541C120.819 68.7541 119.188 67.223 119.188 64.9464M124.192 64.3059C124.096 63.4903 123.62 62.975 122.912 62.975C122.204 62.975 121.767 63.5053 121.632 64.3059H124.187H124.192Z" fill="white"/>
<path d="M127.062 61.2435H129.647V62.7196C130.069 61.7189 130.747 61.0634 131.971 61.1185V63.8304H131.756C130.41 63.8304 129.647 64.6009 129.647 66.2972V68.5738H127.062V61.2385V61.2435Z" fill="white"/>
<path d="M132.232 61.2436H134.817V62.2743C135.294 61.6639 135.972 61.0835 137.021 61.0835C138.587 61.0835 139.526 62.1142 139.526 63.7804V68.5788H136.941V64.606C136.941 63.8054 136.519 63.3701 135.907 63.3701C135.294 63.3701 134.817 63.8054 134.817 64.606V68.5788H132.232V61.2436Z" fill="white"/>
<path d="M139.907 64.9414V64.9164C139.907 62.8299 141.619 61.0786 143.988 61.0786C146.357 61.0786 148.044 62.7998 148.044 64.8863V64.9113C148.044 66.9978 146.327 68.7491 143.963 68.7491C141.599 68.7491 139.912 67.0279 139.912 64.9414M145.524 64.9414V64.9164C145.524 64.0207 144.871 63.2602 143.958 63.2602C143.044 63.2602 142.422 64.0057 142.422 64.8863V64.9113C142.422 65.807 143.074 66.5675 143.988 66.5675C144.901 66.5675 145.524 65.822 145.524 64.9414Z" fill="white"/>
<path d="M151.221 64.9412V64.9162C151.221 62.5295 152.716 61.0785 154.458 61.0785C155.572 61.0785 156.225 61.5788 156.717 62.1342V58.6768H159.302V68.5738H156.717V67.5981C156.215 68.2086 155.572 68.7389 154.473 68.7389C152.732 68.7389 151.221 67.2879 151.221 64.9412ZM156.757 64.9162V64.8912C156.757 63.9305 156.089 63.235 155.261 63.235C154.433 63.235 153.75 63.9105 153.75 64.8912V64.9162C153.75 65.8919 154.433 66.5824 155.261 66.5824C156.089 66.5824 156.757 65.8919 156.757 64.9162Z" fill="white"/>
<path d="M159.714 64.9414V64.9164C159.714 62.7748 161.25 61.0786 163.428 61.0786C165.973 61.0786 167.142 62.9349 167.142 65.0915C167.142 65.2566 167.142 65.4417 167.127 65.6219H162.203C162.409 66.4224 162.991 66.8277 163.795 66.8277C164.407 66.8277 164.899 66.5976 165.426 66.0822L166.856 67.263C166.149 68.1587 165.13 68.7541 163.659 68.7541C161.345 68.7541 159.714 67.223 159.714 64.9464M164.718 64.3059C164.623 63.4903 164.146 62.975 163.438 62.975C162.73 62.975 162.294 63.5053 162.158 64.3059H164.713H164.718Z" fill="white"/>
<path d="M92.1328 71.3159H89.5479V81.213H92.1328V71.3159Z" fill="white"/>
<path d="M92.555 79.1113V79.0863C92.555 77.5702 93.7094 76.7796 95.4361 76.7796C96.1187 76.7796 96.7812 76.9147 97.2029 77.0648V76.9447C97.2029 76.1842 96.726 75.7539 95.7322 75.7539C94.9542 75.7539 94.3569 75.904 93.7044 76.1592L93.1723 74.3429C94.0005 74.0026 94.8839 73.7725 96.1488 73.7725C97.4137 73.7725 98.3674 74.0827 98.9496 74.6681C99.5067 75.2085 99.7376 75.969 99.7376 76.9998V81.2178H97.1828V80.4572C96.6809 81.0126 95.9882 81.3779 95.0195 81.3779C93.6191 81.3779 92.5449 80.5773 92.5449 79.1113M97.233 78.5559V78.2156C96.977 78.1056 96.6056 78.0255 96.2241 78.0255C95.4762 78.0255 95.0395 78.3908 95.0395 78.9361V78.9612C95.0395 79.4615 95.421 79.7617 95.953 79.7617C96.7009 79.7617 97.233 79.2864 97.233 78.5559Z" fill="white"/>
<path d="M103.316 76.4947V76.4697C103.316 73.7027 105.45 71.5361 108.336 71.5361C110.278 71.5361 111.533 72.3517 112.376 73.5175L110.389 75.0486C109.847 74.3732 109.219 73.9378 108.311 73.9378C106.976 73.9378 106.037 75.0637 106.037 76.4446V76.4697C106.037 77.8957 106.976 79.0065 108.311 79.0065C109.304 79.0065 109.887 78.5461 110.459 77.8556L112.447 79.2667C111.548 80.4975 110.338 81.4082 108.23 81.4082C105.51 81.4082 103.321 79.3317 103.321 76.4997" fill="white"/>
<path d="M112.306 77.5805V77.5555C112.306 75.469 114.017 73.7178 116.386 73.7178C118.756 73.7178 120.442 75.439 120.442 77.5255V77.5505C120.442 79.637 118.725 81.3883 116.361 81.3883C113.997 81.3883 112.311 79.667 112.311 77.5805M117.922 77.5805V77.5555C117.922 76.6599 117.27 75.8993 116.356 75.8993C115.443 75.8993 114.82 76.6449 114.82 77.5255V77.5505C114.82 78.4462 115.473 79.2067 116.386 79.2067C117.3 79.2067 117.922 78.4612 117.922 77.5805Z" fill="white"/>
<path d="M120.864 73.8779H123.449V74.8836C123.925 74.2732 124.603 73.7178 125.637 73.7178C126.616 73.7178 127.364 74.1531 127.76 74.9086C128.398 74.1781 129.145 73.7178 130.22 73.7178C131.786 73.7178 132.734 74.6935 132.734 76.3997V81.2131H130.149V77.2253C130.149 76.4247 129.753 76.0044 129.14 76.0044C128.528 76.0044 128.081 76.4247 128.081 77.2253V81.2131H125.496V77.2253C125.496 76.4247 125.1 76.0044 124.488 76.0044C123.875 76.0044 123.438 76.4247 123.438 77.2253V81.2131H120.854V73.8779H120.864Z" fill="white"/>
<path d="M133.337 78.6812V73.8828H135.922V77.8557C135.922 78.6562 136.344 79.0915 136.971 79.0915C137.598 79.0915 138.045 78.6562 138.045 77.8557V73.8828H140.63V81.2181H138.045V80.2123C137.568 80.8228 136.891 81.3782 135.842 81.3782C134.276 81.3782 133.337 80.3474 133.337 78.6812Z" fill="white"/>
<path d="M141.362 73.8779H143.947V74.9086C144.424 74.2982 145.102 73.7178 146.151 73.7178C147.717 73.7178 148.655 74.7485 148.655 76.4147V81.2131H146.07V77.2403C146.07 76.4397 145.649 76.0044 145.036 76.0044C144.424 76.0044 143.947 76.4397 143.947 77.2403V81.2131H141.362V73.8779Z" fill="white"/>
<path d="M149.333 71.3159H152.023V73.2123H149.333V71.3159ZM149.383 73.8777H151.968V81.213H149.383V73.8777Z" fill="white"/>
<path d="M152.485 77.5804V77.5554C152.485 75.1687 153.981 73.7176 155.723 73.7176C156.837 73.7176 157.49 74.218 157.982 74.7734V71.3159H160.566V81.213H157.982V80.2373C157.48 80.8477 156.837 81.3781 155.738 81.3781C153.996 81.3781 152.485 79.9271 152.485 77.5804ZM158.022 77.5554V77.5304C158.022 76.5697 157.354 75.8742 156.526 75.8742C155.698 75.8742 155.015 76.5497 155.015 77.5304V77.5554C155.015 78.5311 155.698 79.2216 156.526 79.2216C157.354 79.2216 158.022 78.5311 158.022 77.5554Z" fill="white"/>
<path d="M160.933 79.1113V79.0863C160.933 77.5702 162.087 76.7796 163.814 76.7796C164.497 76.7796 165.159 76.9147 165.581 77.0648V76.9447C165.581 76.1842 165.104 75.7539 164.11 75.7539C163.332 75.7539 162.735 75.904 162.082 76.1592L161.55 74.3429C162.378 74.0026 163.262 73.7725 164.527 73.7725C165.792 73.7725 166.745 74.0827 167.328 74.6681C167.885 75.2085 168.116 75.969 168.116 76.9998V81.2178H165.561V80.4572C165.059 81.0126 164.366 81.3779 163.397 81.3779C161.997 81.3779 160.923 80.5773 160.923 79.1113M165.611 78.5559V78.2156C165.355 78.1056 164.984 78.0255 164.602 78.0255C163.854 78.0255 163.417 78.3908 163.417 78.9361V78.9612C163.417 79.4615 163.799 79.7617 164.331 79.7617C165.079 79.7617 165.611 79.2864 165.611 78.5559Z" fill="white"/>
<path d="M168.457 77.5804V77.5554C168.457 75.1687 169.953 73.7176 171.695 73.7176C172.809 73.7176 173.461 74.218 173.953 74.7734V71.3159H176.538V81.213H173.953V80.2373C173.451 80.8477 172.809 81.3781 171.71 81.3781C169.968 81.3781 168.457 79.9271 168.457 77.5804ZM173.993 77.5554V77.5304C173.993 76.5697 173.326 75.8742 172.498 75.8742C171.669 75.8742 170.987 76.5497 170.987 77.5304V77.5554C170.987 78.5311 171.669 79.2216 172.498 79.2216C173.326 79.2216 173.993 78.5311 173.993 77.5554Z" fill="white"/>
</g>
<defs>
<clipPath id="clip0_8643_3618">
<rect width="200.367" height="91" fill="white" transform="translate(0.5)"/>
</clipPath>
</defs>
</svg>
