<svg width="33" height="32" viewBox="0 0 33 32" fill="none" xmlns="http://www.w3.org/2000/svg">
<path fill-rule="evenodd" clip-rule="evenodd" d="M12.5643 16.0878V26.9194C12.5643 27.0759 12.6977 27.1998 12.8663 27.1998H17.1988C17.3673 27.1998 17.5007 27.0759 17.5007 26.9194V15.9118H20.6395C20.794 15.9118 20.9274 15.8009 20.9415 15.6509L21.2434 12.3382C21.2575 12.1752 21.117 12.0317 20.9415 12.0317H17.5007V9.67759C17.5007 9.1233 17.9852 8.67986 18.5751 8.67986H20.9977C21.1662 8.67986 21.2996 8.55596 21.2996 8.39946V5.08021C21.2996 4.92371 21.1662 4.7998 20.9977 4.7998H16.9109C14.5094 4.7998 12.5643 6.60615 12.5643 8.83637V12.0317H10.4016C10.233 12.0317 10.0996 12.1556 10.0996 12.3121V15.6248C10.0996 15.7813 10.233 15.9052 10.4016 15.9052H12.5643V16.0813V16.0878Z" fill="#236999"/>
</svg>
