<svg width="33" height="32" viewBox="0 0 33 32" fill="none" xmlns="http://www.w3.org/2000/svg">
<path d="M22.3906 8.92085C21.6652 8.92085 21.0711 9.50868 21.0711 10.2403C21.0711 10.972 21.6589 11.5598 22.3906 11.5598C23.1222 11.5598 23.7101 10.972 23.7101 10.2403C23.7101 9.50868 23.1222 8.92085 22.3906 8.92085ZM16.5373 10.6093C13.4856 10.6093 11.003 13.0919 11.003 16.1436C11.003 19.1953 13.4856 21.678 16.5373 21.678C19.589 21.678 22.0717 19.1953 22.0717 16.1436C22.0717 13.0919 19.589 10.6093 16.5373 10.6093ZM16.5373 19.6894C14.58 19.6894 12.9916 18.101 12.9916 16.1436C12.9916 14.1863 14.58 12.5979 16.5373 12.5979C18.4947 12.5979 20.0831 14.1863 20.0831 16.1436C20.0831 18.101 18.4947 19.6894 16.5373 19.6894ZM27.6998 11.5473C27.6998 7.82024 24.6794 4.7998 20.9523 4.7998H12.0473C8.32024 4.7998 5.2998 7.82024 5.2998 11.5473V20.4523C5.2998 24.1794 8.32024 27.1998 12.0473 27.1998H20.9523C24.6794 27.1998 27.6998 24.1794 27.6998 20.4523V11.5473ZM25.5861 20.4523C25.5861 23.01 23.51 25.0861 20.9523 25.0861H12.0473C9.48964 25.0861 7.41348 23.01 7.41348 20.4523V11.5473C7.41348 8.98964 9.48964 6.91348 12.0473 6.91348H20.9523C23.51 6.91348 25.5861 8.98964 25.5861 11.5473V20.4523Z" fill="#236999"/>
</svg>
