<svg width="33" height="32" viewBox="0 0 33 32" fill="none" xmlns="http://www.w3.org/2000/svg">
<path d="M26.4109 9.19749C25.1276 8.92409 23.9656 8.24958 23.0941 7.27231C22.2227 6.29503 21.6874 5.06608 21.5664 3.7646V3.2002H17.1395V20.6981C17.1368 21.4727 16.8904 22.227 16.435 22.855C15.9797 23.483 15.3381 23.9532 14.6007 24.1993C13.8632 24.4455 13.0668 24.4553 12.3234 24.2274C11.58 23.9995 10.927 23.5454 10.4562 22.9288C9.97799 22.3019 9.71273 21.5396 9.69886 20.7525C9.68499 19.9653 9.92323 19.1942 10.379 18.551C10.8348 17.9078 11.4845 17.4259 12.2338 17.1752C12.9831 16.9245 13.7931 16.9181 14.5464 17.1568V12.6774C12.8667 12.4461 11.1564 12.7435 9.65477 13.528C8.15314 14.3125 6.93527 15.5449 6.17151 17.0527C5.40775 18.5605 5.13629 20.2684 5.39511 21.9375C5.65393 23.6065 6.43008 25.1532 7.615 26.3613C8.74499 27.5129 10.1939 28.3029 11.7767 28.6306C13.3596 28.9583 15.0046 28.8089 16.5017 28.2013C17.9989 27.5937 19.2803 26.5555 20.1824 25.2193C21.0845 23.8831 21.5663 22.3095 21.5664 20.6993V11.7584C23.3555 13.0323 25.5006 13.7154 27.6998 13.7115V9.33059C27.2667 9.33113 26.8347 9.28651 26.4109 9.19749Z" fill="#236999"/>
</svg>
