<svg width="25" height="24" viewBox="0 0 25 24" fill="none" xmlns="http://www.w3.org/2000/svg">
<path fill-rule="evenodd" clip-rule="evenodd" d="M4.26213 16.5163L2.92383 21.3932L7.92421 20.0845C9.30199 20.8343 10.8531 21.2296 12.4316 21.2302H12.4357C17.6345 21.2302 21.8663 17.0076 21.8686 11.8186C21.8695 9.30378 20.8895 6.93915 19.1084 5.16018C17.3273 3.3812 14.959 2.40118 12.4359 2.3999C7.2364 2.3999 3.00524 6.62169 3.00306 11.8111C3.00106 13.4627 3.43534 15.0856 4.26213 16.5163ZM4.5954 11.8117C4.59694 7.49872 8.11389 3.98977 12.4385 3.98977C13.4685 3.98734 14.4887 4.18884 15.4402 4.58261C16.3916 4.97637 17.2553 5.55458 17.9813 6.28377C18.7114 7.00899 19.2901 7.87155 19.6839 8.82151C20.0777 9.77147 20.2787 10.79 20.2755 11.818C20.2738 16.1313 16.7569 19.6406 12.4356 19.6406H12.4326C11.0255 19.6398 9.64565 19.2629 8.44222 18.55L8.15569 18.3806L5.18833 19.1572L5.98049 16.2708L5.79396 15.9748C5.0088 14.7278 4.59327 13.2845 4.5954 11.8117Z" fill="white"/>
<path fill-rule="evenodd" clip-rule="evenodd" d="M10.1411 7.64612C9.96401 7.22208 9.77771 7.21349 9.60953 7.20615L9.15677 7.2002C8.99925 7.2002 8.74332 7.26392 8.52696 7.51881C8.3106 7.77371 7.7002 8.38975 7.7002 9.64275C7.7002 10.8957 8.54662 12.1065 8.66456 12.2766C8.78251 12.4467 10.2986 15.1 12.6995 16.1208C14.6946 16.9692 15.1006 16.8004 15.5339 16.758C15.9671 16.7156 16.9313 16.142 17.128 15.5473C17.3247 14.9526 17.3249 14.4431 17.2659 14.3365C17.2069 14.23 17.0494 14.1667 16.813 14.0393C16.5766 13.9118 15.4155 13.2958 15.199 13.2107C14.9825 13.1257 14.8252 13.0834 14.6675 13.3383C14.5099 13.5932 14.0577 14.1666 13.9199 14.3365C13.782 14.5065 13.6444 14.5279 13.408 14.4005C13.1716 14.2732 12.411 14.0042 11.5086 13.1366C10.8064 12.4615 10.3325 11.6279 10.1945 11.3731C10.0565 11.1184 10.1799 10.9804 10.2983 10.8535C10.4043 10.7393 10.5345 10.5561 10.6528 10.4074C10.7711 10.2588 10.81 10.1525 10.8887 9.98284C10.9673 9.81314 10.9281 9.66408 10.869 9.53677C10.8099 9.40946 10.351 8.14982 10.1411 7.64612Z" fill="white"/>
</svg>
