<svg width="32" height="32" viewBox="0 0 32 32" fill="none" xmlns="http://www.w3.org/2000/svg">
<g clip-path="url(#clip0_8623_2900)">
<mask id="mask0_8623_2900" style="mask-type:alpha" maskUnits="userSpaceOnUse" x="0" y="0" width="32" height="32">
<rect width="32" height="32" fill="#D9D9D9"/>
</mask>
<g mask="url(#mask0_8623_2900)">
<path d="M8.00065 27.9993V26.666L10.0007 25.3327C8.68954 25.3327 7.58398 24.8827 6.68398 23.9827C5.78398 23.0827 5.33398 21.9771 5.33398 20.666V7.99935C5.33398 6.1549 6.18954 4.8049 7.90065 3.94935C9.61176 3.09379 12.3118 2.66602 16.0007 2.66602C19.8229 2.66602 22.5562 3.07713 24.2007 3.89935C25.8451 4.72157 26.6673 6.08824 26.6673 7.99935V20.666C26.6673 21.9771 26.2173 23.0827 25.3173 23.9827C24.4173 24.8827 23.3118 25.3327 22.0007 25.3327L24.0007 26.666V27.9993H8.00065ZM8.00065 13.3327H14.6673V9.33268H8.00065V13.3327ZM17.334 13.3327H24.0007V9.33268H17.334V13.3327ZM11.334 21.3327C11.8895 21.3327 12.3618 21.1382 12.7507 20.7493C13.1395 20.3605 13.334 19.8882 13.334 19.3327C13.334 18.7771 13.1395 18.3049 12.7507 17.916C12.3618 17.5271 11.8895 17.3327 11.334 17.3327C10.7784 17.3327 10.3062 17.5271 9.91732 17.916C9.52843 18.3049 9.33398 18.7771 9.33398 19.3327C9.33398 19.8882 9.52843 20.3605 9.91732 20.7493C10.3062 21.1382 10.7784 21.3327 11.334 21.3327ZM20.6673 21.3327C21.2229 21.3327 21.6951 21.1382 22.084 20.7493C22.4729 20.3605 22.6673 19.8882 22.6673 19.3327C22.6673 18.7771 22.4729 18.3049 22.084 17.916C21.6951 17.5271 21.2229 17.3327 20.6673 17.3327C20.1118 17.3327 19.6395 17.5271 19.2507 17.916C18.8618 18.3049 18.6673 18.7771 18.6673 19.3327C18.6673 19.8882 18.8618 20.3605 19.2507 20.7493C19.6395 21.1382 20.1118 21.3327 20.6673 21.3327ZM10.0007 22.666H22.0007C22.5784 22.666 23.0562 22.4771 23.434 22.0993C23.8118 21.7216 24.0007 21.2438 24.0007 20.666V15.9993H8.00065V20.666C8.00065 21.2438 8.18954 21.7216 8.56732 22.0993C8.9451 22.4771 9.42287 22.666 10.0007 22.666ZM16.0007 5.33268C14.0895 5.33268 12.5062 5.44379 11.2507 5.66602C9.9951 5.88824 9.11176 6.22157 8.60065 6.66602H23.534C23.134 6.22157 22.3062 5.88824 21.0507 5.66602C19.7951 5.44379 18.1118 5.33268 16.0007 5.33268Z" fill="#236999"/>
</g>
</g>
<defs>
<clipPath id="clip0_8623_2900">
<rect width="32" height="32" fill="white"/>
</clipPath>
</defs>
</svg>
