<svg width="32" height="32" viewBox="0 0 32 32" fill="none" xmlns="http://www.w3.org/2000/svg">
<g clip-path="url(#clip0_8623_2891)">
<mask id="mask0_8623_2891" style="mask-type:alpha" maskUnits="userSpaceOnUse" x="0" y="0" width="32" height="32">
<rect width="32" height="32" fill="#D9D9D9"/>
</mask>
<g mask="url(#mask0_8623_2891)">
<path d="M8.00065 27.9993C7.62287 27.9993 7.30621 27.8716 7.05065 27.616C6.7951 27.3605 6.66732 27.0438 6.66732 26.666V23.9327C6.26732 23.4882 5.9451 22.9938 5.70065 22.4494C5.45621 21.9049 5.33398 21.3105 5.33398 20.666V7.99935C5.33398 6.1549 6.18954 4.8049 7.90065 3.94935C9.61176 3.09379 12.3118 2.66602 16.0007 2.66602C19.8229 2.66602 22.5562 3.07713 24.2007 3.89935C25.8451 4.72157 26.6673 6.08824 26.6673 7.99935V20.666C26.6673 21.3105 26.5451 21.9049 26.3007 22.4494C26.0562 22.9938 25.734 23.4882 25.334 23.9327V26.666C25.334 27.0438 25.2062 27.3605 24.9507 27.616C24.6951 27.8716 24.3784 27.9993 24.0006 27.9993H22.6673C22.2895 27.9993 21.9729 27.8716 21.7173 27.616C21.4618 27.3605 21.334 27.0438 21.334 26.666V25.3327H10.6673V26.666C10.6673 27.0438 10.5395 27.3605 10.284 27.616C10.0284 27.8716 9.71176 27.9993 9.33398 27.9993H8.00065ZM8.00065 13.3327H24.0006V9.33268H8.00065V13.3327ZM11.334 21.3327C11.8895 21.3327 12.3618 21.1382 12.7507 20.7493C13.1395 20.3605 13.334 19.8882 13.334 19.3327C13.334 18.7771 13.1395 18.3049 12.7507 17.916C12.3618 17.5271 11.8895 17.3327 11.334 17.3327C10.7784 17.3327 10.3062 17.5271 9.91732 17.916C9.52843 18.3049 9.33398 18.7771 9.33398 19.3327C9.33398 19.8882 9.52843 20.3605 9.91732 20.7493C10.3062 21.1382 10.7784 21.3327 11.334 21.3327ZM20.6673 21.3327C21.2229 21.3327 21.6951 21.1382 22.084 20.7493C22.4729 20.3605 22.6673 19.8882 22.6673 19.3327C22.6673 18.7771 22.4729 18.3049 22.084 17.916C21.6951 17.5271 21.2229 17.3327 20.6673 17.3327C20.1118 17.3327 19.6395 17.5271 19.2507 17.916C18.8618 18.3049 18.6673 18.7771 18.6673 19.3327C18.6673 19.8882 18.8618 20.3605 19.2507 20.7493C19.6395 21.1382 20.1118 21.3327 20.6673 21.3327ZM8.60065 6.66602H23.534C23.2007 6.28824 22.484 5.97157 21.384 5.71602C20.284 5.46046 18.5118 5.33268 16.0673 5.33268C13.6895 5.33268 11.9507 5.47157 10.8507 5.74935C9.75065 6.02713 9.00065 6.33268 8.60065 6.66602ZM10.6673 22.666H21.334C22.0673 22.666 22.6951 22.4049 23.2173 21.8827C23.7395 21.3605 24.0006 20.7327 24.0006 19.9993V15.9993H8.00065V19.9993C8.00065 20.7327 8.26176 21.3605 8.78398 21.8827C9.30621 22.4049 9.93398 22.666 10.6673 22.666Z" fill="#236999"/>
</g>
</g>
<defs>
<clipPath id="clip0_8623_2891">
<rect width="32" height="32" fill="white"/>
</clipPath>
</defs>
</svg>
